<?xml version="1.0" encoding="UTF-8"?>
<!DOCTYPE svg PUBLIC "-//W3C//DTD SVG 1.1//EN" "http://www.w3.org/Graphics/SVG/1.1/DTD/svg11.dtd">
<svg xmlns="http://www.w3.org/2000/svg" version="1.1" width="469px" height="221px" style="shape-rendering:geometricPrecision; text-rendering:geometricPrecision; image-rendering:optimizeQuality; fill-rule:evenodd; clip-rule:evenodd" xmlns:xlink="http://www.w3.org/1999/xlink">
<g><path style="opacity:0.991" fill="#000000" d="M 1.5,1.5 C 156.833,1.5 312.167,1.5 467.5,1.5C 467.5,74.1667 467.5,146.833 467.5,219.5C 312.167,219.5 156.833,219.5 1.5,219.5C 1.5,146.833 1.5,74.1667 1.5,1.5 Z"/></g>
<g><path style="opacity:1" fill="#fcfcfc" d="M 59.5,73.5 C 70.5641,70.4495 78.0641,74.1162 82,84.5C 82.6667,99.5 82.6667,114.5 82,129.5C 80.9471,135.553 77.4471,139.387 71.5,141C 62.0236,143.343 55.1903,140.177 51,131.5C 50.3333,115.167 50.3333,98.8333 51,82.5C 52.6878,78.3148 55.5212,75.3148 59.5,73.5 Z"/></g>
<g><path style="opacity:1" fill="#b3b3b3" d="M 214.5,74.5 C 223.986,73.5062 233.652,73.1729 243.5,73.5C 243.5,77.1667 243.5,80.8333 243.5,84.5C 237.5,84.5 231.5,84.5 225.5,84.5C 230.975,83.5111 236.642,83.1778 242.5,83.5C 242.5,80.5 242.5,77.5 242.5,74.5C 233.167,74.5 223.833,74.5 214.5,74.5 Z"/></g>
<g><path style="opacity:1" fill="#f6f6f6" d="M 316.5,85.5 C 316.5,89.1667 316.5,92.8333 316.5,96.5C 313.167,96.5 309.833,96.5 306.5,96.5C 306.854,92.3628 306.354,88.3628 305,84.5C 302.408,83.0183 300.075,83.3517 298,85.5C 297.333,100.167 297.333,114.833 298,129.5C 300.966,132.265 303.633,131.932 306,128.5C 306.499,124.179 306.666,119.846 306.5,115.5C 310.167,115.5 313.833,115.5 317.5,115.5C 318.311,122.877 317.144,129.877 314,136.5C 308.689,141.146 302.523,142.646 295.5,141C 290.162,138.993 286.996,135.159 286,129.5C 285.333,114.5 285.333,99.5 286,84.5C 289.94,73.951 297.44,70.451 308.5,74C 313.383,76.3693 316.05,80.2027 316.5,85.5 Z"/></g>
<g><path style="opacity:1" fill="#fbfbfb" d="M 88.5,73.5 C 93.1667,73.5 97.8333,73.5 102.5,73.5C 105.329,84.8143 108.162,96.1477 111,107.5C 111.5,96.1716 111.667,84.8382 111.5,73.5C 114.833,73.5 118.167,73.5 121.5,73.5C 121.5,95.8333 121.5,118.167 121.5,140.5C 117.563,140.793 113.73,140.46 110,139.5C 106.177,125.209 102.511,110.876 99,96.5C 98.5001,111.163 98.3334,125.83 98.5,140.5C 95.1667,140.5 91.8333,140.5 88.5,140.5C 88.5,118.167 88.5,95.8333 88.5,73.5 Z"/></g>
<g><path style="opacity:1" fill="#f8f8f8" d="M 128.5,73.5 C 138.167,73.5 147.833,73.5 157.5,73.5C 157.5,77.1667 157.5,80.8333 157.5,84.5C 151.5,84.5 145.5,84.5 139.5,84.5C 139.5,89.8333 139.5,95.1667 139.5,100.5C 144.5,100.5 149.5,100.5 154.5,100.5C 154.789,104.106 154.456,107.606 153.5,111C 148.845,111.499 144.179,111.666 139.5,111.5C 139.5,117.833 139.5,124.167 139.5,130.5C 145.5,130.5 151.5,130.5 157.5,130.5C 157.5,133.833 157.5,137.167 157.5,140.5C 147.833,140.5 138.167,140.5 128.5,140.5C 128.5,118.167 128.5,95.8333 128.5,73.5 Z"/></g>
<g><path style="opacity:1" fill="#f5f5f5" d="M 178.5,73.5 C 207.631,70.0703 216.798,82.0703 206,109.5C 201.105,113.016 195.605,114.349 189.5,113.5C 189.5,122.5 189.5,131.5 189.5,140.5C 185.5,140.5 181.5,140.5 177.5,140.5C 177.178,118.092 177.511,95.7582 178.5,73.5 Z"/></g>
<g><path style="opacity:1" fill="#fcfcfc" d="M 214.5,74.5 C 223.833,74.5 233.167,74.5 242.5,74.5C 242.5,77.5 242.5,80.5 242.5,83.5C 236.642,83.1778 230.975,83.5111 225.5,84.5C 225.5,89.8333 225.5,95.1667 225.5,100.5C 230.167,100.5 234.833,100.5 239.5,100.5C 239.5,104.167 239.5,107.833 239.5,111.5C 234.833,111.5 230.167,111.5 225.5,111.5C 225.5,117.833 225.5,124.167 225.5,130.5C 231.5,130.5 237.5,130.5 243.5,130.5C 243.5,133.833 243.5,137.167 243.5,140.5C 233.833,140.5 224.167,140.5 214.5,140.5C 214.5,118.5 214.5,96.5 214.5,74.5 Z"/></g>
<g><path style="opacity:1" fill="#fafafa" d="M 248.5,73.5 C 256.238,73.1439 263.905,73.6439 271.5,75C 275.36,76.1929 277.86,78.6929 279,82.5C 279.667,88.5 279.667,94.5 279,100.5C 278.218,103.076 276.718,105.076 274.5,106.5C 277.335,108.828 279.169,111.828 280,115.5C 280.197,123.549 280.697,131.549 281.5,139.5C 277.5,140.833 273.5,140.833 269.5,139.5C 268.697,131.549 268.197,123.549 268,115.5C 265.847,112.876 263.013,111.876 259.5,112.5C 259.5,121.833 259.5,131.167 259.5,140.5C 255.833,140.5 252.167,140.5 248.5,140.5C 248.5,118.167 248.5,95.8333 248.5,73.5 Z"/></g>
<g><path style="opacity:1" fill="#fafafa" d="M 322.5,73.5 C 332.167,73.5 341.833,73.5 351.5,73.5C 351.5,77.1667 351.5,80.8333 351.5,84.5C 345.5,84.5 339.5,84.5 333.5,84.5C 333.5,89.8333 333.5,95.1667 333.5,100.5C 338.167,100.5 342.833,100.5 347.5,100.5C 347.5,104.167 347.5,107.833 347.5,111.5C 342.833,111.5 338.167,111.5 333.5,111.5C 333.5,117.833 333.5,124.167 333.5,130.5C 339.5,130.5 345.5,130.5 351.5,130.5C 351.5,133.833 351.5,137.167 351.5,140.5C 341.833,140.5 332.167,140.5 322.5,140.5C 322.5,118.167 322.5,95.8333 322.5,73.5 Z"/></g>
<g><path style="opacity:1" fill="#d9d9d9" d="M 370.5,74.5 C 366.167,74.5 361.833,74.5 357.5,74.5C 357.5,96.5 357.5,118.5 357.5,140.5C 356.503,118.34 356.169,96.0062 356.5,73.5C 361.363,73.1805 366.03,73.5139 370.5,74.5 Z"/></g>
<g><path style="opacity:1" fill="#fdfdfd" d="M 370.5,74.5 C 373.789,84.9887 376.456,95.6553 378.5,106.5C 378.709,107.922 379.209,109.255 380,110.5C 380.5,98.5046 380.667,86.5046 380.5,74.5C 383.5,74.5 386.5,74.5 389.5,74.5C 389.5,96.5 389.5,118.5 389.5,140.5C 385.774,140.823 382.107,140.489 378.5,139.5C 374.695,126.615 371.362,113.615 368.5,100.5C 367.91,99.234 367.41,97.9007 367,96.5C 366.5,110.829 366.333,125.163 366.5,139.5C 363.713,140.477 360.713,140.81 357.5,140.5C 357.5,118.5 357.5,96.5 357.5,74.5C 361.833,74.5 366.167,74.5 370.5,74.5 Z"/></g>
<g><path style="opacity:1" fill="#a7a7a7" d="M 380.5,74.5 C 380.667,86.5046 380.5,98.5046 380,110.5C 379.209,109.255 378.709,107.922 378.5,106.5C 379.167,95.8333 379.833,85.1667 380.5,74.5 Z"/></g>
<g><path style="opacity:1" fill="#919191" d="M 380.5,74.5 C 383.625,73.5206 386.958,73.1872 390.5,73.5C 390.831,96.0062 390.497,118.34 389.5,140.5C 389.5,118.5 389.5,96.5 389.5,74.5C 386.5,74.5 383.5,74.5 380.5,74.5 Z"/></g>
<g><path style="opacity:1" fill="#f2f2f2" d="M 404.5,84.5 C 401.375,83.5206 398.042,83.1872 394.5,83.5C 394.5,80.5 394.5,77.5 394.5,74.5C 404.987,73.5056 415.654,73.1722 426.5,73.5C 426.5,77.1667 426.5,80.8333 426.5,84.5C 423.167,84.5 419.833,84.5 416.5,84.5C 416.5,103.167 416.5,121.833 416.5,140.5C 412.5,140.5 408.5,140.5 404.5,140.5C 404.5,121.833 404.5,103.167 404.5,84.5 Z"/></g>
<g><path style="opacity:1" fill="#090909" d="M 63.5,83.5 C 66.6516,82.9586 69.1516,83.9586 71,86.5C 71.6667,100.167 71.6667,113.833 71,127.5C 68.5228,132.368 65.5228,132.701 62,128.5C 61.3333,114.5 61.3333,100.5 62,86.5C 62.5133,85.4734 63.0133,84.4734 63.5,83.5 Z"/></g>
<g><path style="opacity:1" fill="#b1b1b1" d="M 394.5,74.5 C 394.5,77.5 394.5,80.5 394.5,83.5C 398.042,83.1872 401.375,83.5206 404.5,84.5C 400.833,84.5 397.167,84.5 393.5,84.5C 393.187,80.9581 393.521,77.6248 394.5,74.5 Z"/></g>
<g><path style="opacity:1" fill="#0a0a0a" d="M 189.5,84.5 C 196.856,83.3266 199.856,86.4933 198.5,94C 199.743,101.256 196.743,104.422 189.5,103.5C 189.5,97.1667 189.5,90.8333 189.5,84.5 Z"/></g>
<g><path style="opacity:1" fill="#070707" d="M 259.5,84.5 C 266.576,83.0763 269.576,85.9096 268.5,93C 269.479,99.856 266.479,103.023 259.5,102.5C 259.5,96.5 259.5,90.5 259.5,84.5 Z"/></g>
<g><path style="opacity:1" fill="#8b8b8b" d="M 316.5,85.5 C 317.483,89.2984 317.817,93.2984 317.5,97.5C 313.629,97.815 309.962,97.4816 306.5,96.5C 309.833,96.5 313.167,96.5 316.5,96.5C 316.5,92.8333 316.5,89.1667 316.5,85.5 Z"/></g>
<g><path style="opacity:1" fill="#383838" d="M 368.5,100.5 C 367.833,113.5 367.167,126.5 366.5,139.5C 366.333,125.163 366.5,110.829 367,96.5C 367.41,97.9007 367.91,99.234 368.5,100.5 Z"/></g>
</svg>
